<svg xmlns="http://www.w3.org/2000/svg" viewBox="0 0 114.8 42.4"><path d="M5.9 14.7h5.6v20.9H5.9zm23.7-5h7l-8.1 12.5 8.8 13.5h-7.1l-5.5-8.6-5.5 8.6h-7L21 22.4 12.8 9.7h7l4.9 7.7zm20 5.7c2.4 0 4.5.9 6.3 2.8s2.7 4.3 2.7 7.3-.9 5.5-2.8 7.5-4 3-6.3 3c-2.4 0-4.3-1-5.9-2.9v2.6H38v-26h5.6v8.2c1.6-1.7 3.5-2.5 6-2.5m-6 10.3c0 1.6.5 2.9 1.4 4 .9 1 2 1.5 3.3 1.5s2.4-.5 3.4-1.5 1.4-2.3 1.4-4-.5-3-1.4-4c-.9-1.1-2.1-1.6-3.4-1.6s-2.4.5-3.3 1.6c-1 1-1.4 2.4-1.4 4m16.9-16h5.6v25.9h-5.6zM82 26.5V15.7h5.6v20H82V33c-1.4 2-3.2 2.9-5.4 2.9s-4-.7-5.5-2.1-2.2-3.4-2.2-6.1v-12h5.6v10.9c0 3.1 1.1 4.6 3.4 4.6 1.1 0 2.1-.4 2.9-1.2s1.2-2 1.2-3.5m26 6.3c-2.3 2.1-4.9 3.2-7.9 3.2s-5.5-.9-7.5-2.8-3-4.4-3-7.5 1-5.6 3-7.5 4.4-2.8 7.1-2.8 5.1.8 7 2.5 2.9 3.9 2.9 6.8v3H95c.2 1.1.7 2 1.7 2.7s2.1 1 3.3 1c2 0 3.6-.7 4.8-2l3.2 3.4zm-5.4-11.9c-.8-.6-1.7-1-2.8-1s-2.1.3-3 1-1.4 1.6-1.6 2.7h8.8c-.2-1.1-.6-2-1.4-2.7" fill="#fff"/><path d="M12,9.7c0,1.8-1.5,3.3-3.3,3.3s-3.3-1.5-3.3-3.3c0-1.8,1.5-3.3,3.3-3.3S12,7.9,12,9.7" fill="#00b6ed"/></svg>